[img]http://img855.imageshack.us/img855/4811/hangw.jpg[/img]

[code]

Release Notes:
Well here we are with our release of Harry Potter and the The Hangover Part II 2011 DVDSCR XviD AC3 - VISUALiSE
Big Thanks For The Source file from ?????????   So we could do a proper release on this and not a reencode 
Decided to tag it as a screener as tbh as its more a scr than a true dvdrip but hey  

Info:
Video
ID                               : 0
Format                           : MPEG-4 Visual
Format profile                   : Advanced Simple@L5
Format settings, BVOP            : 2
Format settings, QPel            : No
Format settings, GMC             : No warppoints
Format settings, Matrix          : Default (H.263)
Muxing mode                      : Packed bitstream
Codec ID                         : XVID
Codec ID/Hint                    : XviD
Duration                         : 1h 37mn
Bit rate                         : 2 035 Kbps
Width                            : 720 pixels
Height                           : 304 pixels
Display aspect ratio             : 2.35:1
Frame rate                       : 23.976 fps
Color space                      : YUV
Chroma subsampling               : 4:2:0
Bit depth                        : 8 bits
Scan type                        : Progressive
Compression mode                 : Lossy
Bits/(Pixel*Frame)               : 0.388
Stream size                      : 1.39 GiB (84%)
Writing library                  : XviD 64

Audio
ID                               : 1
Format                           : AC-3
Format/Info                      : Audio Coding 3
Mode extension                   : CM (complete main)
Codec ID                         : 2000
Duration                         : 1h 37mn
Bit rate mode                    : Constant
Bit rate                         : 384 Kbps
Channel(s)                       : 2 channels
Channel positions                : Front: L R
Sampling rate                    : 48.0 KHz
Bit depth                        : 16 bits
Compression mode                 : Lossy
Stream size                      : 268 MiB (16%)
Alignment                        : Aligned on interleaves
Interleave, duration             : 42 ms (1.00 video frame)

[/code]
Screens:
[img]http://img577.imageshack.us/img577/4815/10074196.png[/img]
[img]http://img14.imageshack.us/img14/5088/88875522.png[/img]
[img]http://img197.imageshack.us/img197/1070/39089878.png[/img]
[img]http://img528.imageshack.us/img528/627/13019935.png[/img]
[img]http://img528.imageshack.us/img528/6498/71470433.png[/img]